<svg xmlns="http://www.w3.org/2000/svg" class="chart" viewBox="0 0 620 205" role="img" aria-label="Illustrative 14-day weight trend from 68.8 to 68.0 kilograms, with daily fluctuation"><path class="axis" d="M45 30h552M45 85h552M45 140h552M45 177h552"/><text x="3" y="34">69 kg</text><text x="3" y="89">68.5</text><text x="3" y="144">68 kg</text><path class="trend" opacity=".35" stroke-dasharray="5 5" d="M48 45C210 70 350 117 595 137"/><path class="trend" d="M48 50 90 63 132 63 174 80 216 92 258 88 300 108 342 98 384 112 426 132 468 124 510 138 552 142 594 142"/><circle class="point" cx="594" cy="142" r="5"/><text x="45" y="199">18 SEP</text><text x="205" y="199">22 SEP</text><text x="370" y="199">26 SEP</text><text x="559" y="199">01 OCT</text><style>.body{fill:none;stroke:#252925;stroke-width:5;stroke-linecap:round;stroke-linejoin:round}.guide{stroke:#747b74;stroke-width:1;stroke-dasharray:4 5;fill:none}.joint{fill:#fff;stroke:#252925;stroke-width:2}text{fill:#525a52;font:12px Arial,sans-serif}.axis{stroke:#d5dad5;stroke-width:1}.trend{fill:none;stroke:#252925;stroke-width:2.6}.point{fill:#fff;stroke:#252925;stroke-width:2}</style></svg>